<?xml version="1.0" encoding="UTF-8"?>
<svg width="32px" height="32px" viewBox="0 0 32 32" version="1.1" xmlns="http://www.w3.org/2000/svg" xmlns:xlink="http://www.w3.org/1999/xlink">
    <!-- Generator: sketchtool 52.3 (67297) - http://www.bohemiancoding.com/sketch -->
    <title>25B29B10-0E01-496B-B24A-40C48A6688D4</title>
    <desc>Created with sketchtool.</desc>
    <g id="Page-1" stroke="none" stroke-width="1" fill="none" fill-rule="evenodd">
        <g id="Search-5" transform="translate(-16.000000, -24.000000)" fill="#FFFFFF">
            <g id="Back-White" transform="translate(16.000000, 24.000000)">
                <g id="arrow-left">
                    <path d="M32,14.6854942 L32,17.3145058 C32,18.0402225 31.7644928,18.6598203 31.2934783,19.1732991 C30.8224638,19.6867779 30.2101449,19.9435173 29.4565217,19.9435173 L14.1521739,19.9435173 L20.5217391,25.9820282 C21.0724638,26.4749679 21.3478261,27.0911425 21.3478261,27.830552 C21.3478261,28.5699615 21.0724638,29.1861361 20.5217391,29.6790757 L18.8913043,31.2400513 C18.3550725,31.7466838 17.7028986,32 16.9347826,32 C16.1811594,32 15.5217391,31.7466838 14.9565217,31.2400513 L0.804347826,17.8485237 C0.268115942,17.3418913 0,16.7257167 0,16 C0,15.287976 0.268115942,14.6649551 0.804347826,14.1309371 L14.9565217,0.780487805 C15.5072464,0.260162602 16.1666667,0 16.9347826,0 C17.6884058,0 18.3405797,0.260162602 18.8913043,0.780487805 L20.5217391,2.30038511 C21.0724638,2.82071031 21.3478261,3.44373128 21.3478261,4.16944801 C21.3478261,4.89516474 21.0724638,5.51818571 20.5217391,6.03851091 L14.1521739,12.0564827 L29.4565217,12.0564827 C30.2101449,12.0564827 30.8224638,12.3132221 31.2934783,12.8267009 C31.7644928,13.3401797 32,13.9597775 32,14.6854942 Z" id="Path"></path>
                    <path d="M32,14.6854942 L32,17.3145058 C32,18.0402225 31.7644928,18.6598203 31.2934783,19.1732991 C30.8224638,19.6867779 30.2101449,19.9435173 29.4565217,19.9435173 L14.1521739,19.9435173 L20.5217391,25.9820282 C21.0724638,26.4749679 21.3478261,27.0911425 21.3478261,27.830552 C21.3478261,28.5699615 21.0724638,29.1861361 20.5217391,29.6790757 L18.8913043,31.2400513 C18.3550725,31.7466838 17.7028986,32 16.9347826,32 C16.1811594,32 15.5217391,31.7466838 14.9565217,31.2400513 L0.804347826,17.8485237 C0.268115942,17.3418913 0,16.7257167 0,16 C0,15.287976 0.268115942,14.6649551 0.804347826,14.1309371 L14.9565217,0.780487805 C15.5072464,0.260162602 16.1666667,0 16.9347826,0 C17.6884058,0 18.3405797,0.260162602 18.8913043,0.780487805 L20.5217391,2.30038511 C21.0724638,2.82071031 21.3478261,3.44373128 21.3478261,4.16944801 C21.3478261,4.89516474 21.0724638,5.51818571 20.5217391,6.03851091 L14.1521739,12.0564827 L29.4565217,12.0564827 C30.2101449,12.0564827 30.8224638,12.3132221 31.2934783,12.8267009 C31.7644928,13.3401797 32,13.9597775 32,14.6854942 Z" id="Path-Copy"></path>
                </g>
            </g>
        </g>
    </g>
</svg>