<?xml version="1.0" encoding="UTF-8"?>
<svg width="64px" height="37px" viewBox="0 0 64 37" version="1.1" xmlns="http://www.w3.org/2000/svg" xmlns:xlink="http://www.w3.org/1999/xlink">
    <!-- Generator: sketchtool 52.3 (67297) - http://www.bohemiancoding.com/sketch -->
    <title>A15DDE2A-5C84-4634-87D0-BE151E9E089D</title>
    <desc>Created with sketchtool.</desc>
    <g id="Page-1" stroke="none" stroke-width="1" fill="none" fill-rule="evenodd">
        <g id="Add-1" transform="translate(-254.000000, -601.000000)" fill="#FFFFFF" fill-rule="nonzero">
            <g id="Action-Buttons" transform="translate(16.000000, 587.000000)">
                <g id="Cook" transform="translate(202.000000, 0.000000)">
                    <g id="Group" transform="translate(0.000000, -4.000000)">
                        <g id="45293" transform="translate(70.884170, 33.972965) rotate(-57.000000) translate(-70.884170, -33.972965) translate(48.884170, 5.472965)">
                            <path d="M17.482884,22.2345578 L15.8053545,19.6104685 C16.3545518,18.880748 16.4281419,17.8544382 15.9106517,17.0402773 L5.67278076,1.02026227 C5.0095851,-0.0165277378 3.64499773,-0.31221875 2.62373246,0.361058456 L1.00622525,1.42734271 C-0.0150400235,2.09972161 -0.308073105,3.48520244 0.355122551,4.52363933 L10.5896016,20.5429058 C11.1104837,21.3552701 12.0631731,21.7039609 12.9438945,21.4936085 L14.6196544,24.1159012 C7.32877898,29.938993 5.48357017,40.5482368 10.6298623,48.6021114 C16.0830501,57.136278 27.3208024,59.567981 35.7270323,54.0311481 C44.1350318,48.4959621 46.5287006,37.0882777 41.0763976,28.5526139 C35.9393965,20.5194002 25.6827962,17.8953109 17.482884,22.2345578 Z M3.85795828,1.78970596 C4.58752744,1.32579766 5.5617382,1.52835719 6.03316329,2.24208418 C6.50458837,2.9565229 6.29711487,3.90996194 5.56841684,4.37401259 C4.84305813,4.83621273 3.86884738,4.63279912 3.39742229,3.9183604 C2.92338382,3.20705331 3.13085732,2.25190611 3.85795828,1.78970596 Z" id="Shape"></path>
                        </g>
                    </g>
                </g>
            </g>
        </g>
    </g>
</svg>