<svg
fill="red"
xmlns="http://www.w3.org/2000/svg"
viewBox="0 0 40 108"
>
<defs />
<title>logo</title>
<g id="Layer_2" data-name="Layer 2">
    <path
    class="cls-1"
    d="M20.93,23.45S14.72,26,12.47,24,7.11,7.35,4.86,5.37s5.93-6.77,11-5C21.61,2.42,13.78,22.5,20.93,23.45Z"
    />
    <path
    class="cls-1"
    d="M70.18,105.1c-2,1.49-4.42,1.74-6.82,1.82a45.69,45.69,0,0,1-14-2A45.85,45.85,0,0,1,39.74,101c-1.86-1-3.65-2.19-5.43-3.36s-3.41-2.31-5.06-3.54q-2.09-1.55-4.1-3.21c-.19-.16-.39-.31-.59-.46L22,88.17c-1.35-1.33-2.73-2.61-4-4a53.75,53.75,0,0,1-5.25-6.41,87,87,0,0,1-7.2-12.94A61.09,61.09,0,0,1,0,42.29a16.56,16.56,0,0,1,.87-6.36,10,10,0,0,1,8.23-7,21.5,21.5,0,0,1,4.81-.14A11.6,11.6,0,0,0,20,27.62c1-.49,1.94-1,2.88-1.54a22.25,22.25,0,0,1,6.68-2.82,8.74,8.74,0,0,1,6.32.8,11.5,11.5,0,0,1,3.75,3.39A19.55,19.55,0,0,1,42.53,34,38.68,38.68,0,0,1,43.72,46c-.31,6-2,10-.7,16a35.29,35.29,0,0,0,5.45,12.89A44.09,44.09,0,0,0,56,82.21c1.69,1.23,3.48,2.29,5.23,3.41a30.29,30.29,0,0,1,7.39,6.43,16,16,0,0,1,3.19,6,7.5,7.5,0,0,1-.41,5.39,1.46,1.46,0,0,0-.28.59ZM14.66,35.41c-4.4,0-8.74-.6-9.14.94-.83,3.16,2.78,5.81,7.18,5.81s11.9-8.11,11.9-9.7S19.06,35.41,14.66,35.41Z"
    />
</g>
</svg>