<svg
  width="40px"
  height="37px"
  xmlns="http://www.w3.org/2000/svg"
  viewBox="0 0 460.64 364.22"
>
  <defs>
    <style>
      .cls-1 {
        fill: #fff;
      }
    </style>
  </defs>
  <title>pan</title>
  <g id="Layer_2" data-name="Layer 2">
    <g id="Layer_1-2" data-name="Layer 1">
      <g id="YK9Lir.tif">
        <path
          class="cls-1"
          d="M376.77,241.61c-21.69-37.55-56.15-53.54-94.74-62.71-39.27-9.34-79.17-10-119.21-6.44-22,2-43.52,6.17-64.08,14.36-28.91,11.51-52.92,28.64-65.35,59.41-19-14.93-35.07-31-33.25-57.48.92-13.43,7.55-24.35,16.49-33.92,16.08-17.2,36.32-27.9,58-36.12,44.74-17,91.3-22.38,138.82-21.13,42.11,1.1,83.15,7.82,122.2,24.25,18.56,7.81,35.81,17.78,49.77,32.63,8.49,9,14.74,19.32,16.69,31.78,2.19,13.94-1.63,26.51-9.82,37.64C387.78,230,382.28,235.37,376.77,241.61Z"
        />
        <path
          class="cls-1"
          d="M41.8,252.4c5.55-15.83,15.45-27.86,28.17-37.75,20.51-15.93,44.31-24.27,69.47-28.57,49.3-8.42,98.49-7.76,147.14,4.72,23.47,6,45.15,15.94,63.23,32.61a80.52,80.52,0,0,1,18.27,24.3c-8.09,4.45-15.83,9.21-24,13.09-30.5,14.55-63,22-96.36,26.06a394.3,394.3,0,0,1-96.67-.09C116,282.36,82.09,274,50.57,257.4,47.66,255.87,44.85,254.15,41.8,252.4Z"
        />
        <path
          class="cls-1"
          d="M3.1,236.23A16.46,16.46,0,0,1,5.66,238c19.09,21.38,43.57,34.14,70.1,43.46,31.19,10.95,63.54,15.7,96.44,17.38,37.57,1.92,74.93.3,111.89-7,34.61-6.87,67.46-18.24,95.94-39.83,5.94-4.5,11.1-10,16.61-15.09,1.25-1.14,2.45-2.34,3.68-3.52l1.15.67c-.3,1.53-.52,3.08-.93,4.58-3.13,11.39-6.08,22.83-9.49,34.13C384.68,293.78,371.46,310,354,322.8c-27.86,20.42-59.55,31.57-93.37,36.78-46.05,7.1-92,6.45-137.38-4.77C82,344.62,47.67,323.21,21.81,289.1,10.55,274.24,6.08,256.64,2.42,238.79,2.31,238.25,2.72,237.61,3.1,236.23Z"
        />
        <path
          class="cls-1"
          d="M374.79,130.7c-24.1-17.27-51-26.2-79.67-33.43,4.76-2.07,8.62-3.88,12.58-5.43a98.38,98.38,0,0,0,38-26.75c16.18-18.15,32.71-36,52.25-50.69,9.43-7.09,19.61-12.68,31.52-14a44.23,44.23,0,0,1,13.35.33c15.89,3.12,22.05,15.88,14.91,30.46-4.14,8.47-10.89,14.74-18.5,19.92C430.13,57.24,420.78,63,411.4,68.71,382.61,86.24,376.56,96.23,374.79,130.7ZM429.73,16.44c-7.88.58-12.86,3.63-16.35,8.88-3.14,4.71-.84,9.17,4.85,9.33a17.37,17.37,0,0,0,15.27-7.88,9,9,0,0,0,1.06-7.27C433.88,17.78,430.76,17,429.73,16.44Z"
        />
      </g>
    </g>
  </g>
</svg>
